<?xml version="1.0" encoding="UTF-8"?><svg id="Layer_1" xmlns="http://www.w3.org/2000/svg" viewBox="0 0 512 512"><path d="M429.12,379.35l57.33,53.03c-48.9,45.24-116.47,73.23-191.1,73.23s-142.03-27.91-190.91-73.06l1.61-1.76,81.34-31.46c30.62,19.71,67.83,31.28,107.96,31.28,52.24,0,99.54-19.59,133.77-51.26Z" fill="teal"/><path d="M486.45,78.83l-57.33,53.03c-34.23-31.67-81.53-51.25-133.77-51.25-28.76,0-56.02,5.93-80.43,16.55-64.26,27.97-108.74,88.4-108.74,158.45,0,33.06,9.91,63.98,27.13,90.35,2.16,3.3,4.42,6.53,6.8,9.68l.04.02-34.1,75.13-1.61,1.76c-49.02-45.25-79.34-107.82-79.34-176.94C25.1,117.53,146.1,5.61,295.35,5.61c74.63,0,142.2,27.98,191.1,73.22Z" fill="teal"/><line x1="429.12" y1="379.35" x2="486.45" y2="432.38" fill="none" stroke="teal" stroke-miterlimit="10"/><line x1="486.45" y1="78.83" x2="429.12" y2="131.86" fill="none" stroke="teal" stroke-miterlimit="10"/><path d="M486.45,78.83C437.55,33.59,369.98,5.61,295.35,5.61,146.1,5.61,25.1,117.53,25.1,255.61c0,69.12,30.32,131.69,79.34,176.94,48.88,45.15,116.37,73.06,190.91,73.06s142.2-27.99,191.1-73.23" fill="none" stroke="teal" stroke-miterlimit="10"/><line x1="187.39" y1="399.33" x2="187.93" y2="399.12" fill="none" stroke="teal" stroke-miterlimit="10"/><polyline points="140.34 355.24 140.15 355.66 106.05 430.79 187.39 399.33" fill="none" stroke="teal" stroke-miterlimit="10"/><path d="M140.11,355.64c-2.38-3.15-4.64-6.38-6.8-9.68" fill="none" stroke="teal" stroke-miterlimit="10"/><path d="M133.31,345.96c-17.22-26.37-27.13-57.29-27.13-90.35,0-70.05,44.48-130.48,108.74-158.45" fill="none" stroke="teal" stroke-miterlimit="10"/><path d="M214.92,97.16c24.41-10.62,51.67-16.55,80.43-16.55,52.24,0,99.54,19.58,133.77,51.25" fill="none" stroke="teal" stroke-miterlimit="10"/><path d="M187.39,399.33s-.05-.04-.08-.05" fill="none" stroke="teal" stroke-miterlimit="10"/><path d="M429.12,379.35c-34.23,31.67-81.53,51.26-133.77,51.26-40.13,0-77.34-11.57-107.96-31.28" fill="none" stroke="teal" stroke-miterlimit="10"/></svg>