<?xml version="1.0" encoding="UTF-8"?><svg id="Layer_1" xmlns="http://www.w3.org/2000/svg" viewBox="0 0 64 64"><path d="M60.6,10.08l-7.11,6.58c-4.24-3.93-10.11-6.35-16.59-6.35-3.57,0-6.95.74-9.97,2.05-7.97,3.47-13.48,10.96-13.48,19.65,0,4.1,1.23,7.93,3.36,11.2.27.41.55.81.84,1.2h0s-4.23,9.32-4.23,9.32l-.2.22c-6.08-5.61-9.84-13.37-9.84-21.94C3.4,14.88,18.4,1,36.91,1c9.25,0,17.63,3.47,23.7,9.08Z" fill="teal"/><path d="M53.49,47.34l7.11,6.58c-6.06,5.61-14.44,9.08-23.7,9.08s-17.61-3.46-23.67-9.06l.2-.22,10.09-3.9c3.8,2.45,8.41,3.88,13.39,3.88,6.48,0,12.34-2.43,16.59-6.36Z" fill="teal"/><line x1="53.49" y1="47.34" x2="60.6" y2="53.92" fill="none" stroke="teal" stroke-miterlimit="10"/><line x1="60.6" y1="10.08" x2="53.49" y2="16.66" fill="none" stroke="teal" stroke-miterlimit="10"/><path d="M60.6,10.08c-6.06-5.61-14.44-9.08-23.7-9.08C18.4,1,3.4,14.88,3.4,32c0,8.57,3.76,16.33,9.84,21.94,6.06,5.6,14.43,9.06,23.67,9.06s17.63-3.47,23.7-9.08" fill="none" stroke="teal" stroke-miterlimit="10"/><line x1="23.52" y1="49.82" x2="23.59" y2="49.8" fill="none" stroke="teal" stroke-miterlimit="10"/><polyline points="17.69 44.36 17.66 44.41 13.43 53.72 23.52 49.82" fill="none" stroke="teal" stroke-miterlimit="10"/><path d="M17.66,44.4c-.29-.39-.58-.79-.84-1.2" fill="none" stroke="teal" stroke-miterlimit="10"/><path d="M16.81,43.2c-2.14-3.27-3.36-7.1-3.36-11.2,0-8.69,5.52-16.18,13.48-19.65" fill="none" stroke="teal" stroke-miterlimit="10"/><path d="M26.93,12.35c3.03-1.32,6.41-2.05,9.97-2.05,6.48,0,12.34,2.43,16.59,6.35" fill="none" stroke="teal" stroke-miterlimit="10"/><path d="M23.52,49.82s0,0,0,0" fill="none" stroke="teal" stroke-miterlimit="10"/><path d="M53.49,47.34c-4.24,3.93-10.11,6.36-16.59,6.36-4.98,0-9.59-1.43-13.39-3.88" fill="none" stroke="teal" stroke-miterlimit="10"/></svg>